<?xml version="1.0"?>
<svg xmlns="http://www.w3.org/2000/svg" id="Layer_1" data-name="Layer 1" viewBox="0 0 512 512" width="512" height="512"><path d="M259.86,262.58a19.439,19.439,0,0,0-30.08-16.266,56.317,56.317,0,0,0-74.967,74.953,19.446,19.446,0,0,0,26.9,26.916,56.377,56.377,0,0,0,74.6-26.142,6,6,0,0,0-10.775-5.284,44.371,44.371,0,0,1-54.2,22.4l56.321-56.322A44.2,44.2,0,0,1,249.8,302a6,6,0,0,0,5.326,6.6,6.17,6.17,0,0,0,.647.035,6,6,0,0,0,5.959-5.361,56.014,56.014,0,0,0-5.049-30.062A19.286,19.286,0,0,0,259.86,262.58ZM245.612,267.9l-68.877,68.886-.374.375a7.449,7.449,0,0,1-12.719-5.259,7.355,7.355,0,0,1,2.127-5.21l9.969-9.958a6,6,0,0,0-8.486-8.485l-3.409,3.41a44.317,44.317,0,0,1,56.315-56.323l-40.9,40.913a6,6,0,0,0,8.485,8.485l47.08-47.08.325-.334a7.442,7.442,0,1,1,10.469,10.58Z"/><path d="M250.93,369.24H160.56a6,6,0,0,0-6,6v27a6,6,0,0,0,6,6h90.37a6,6,0,0,0,6-6v-27A6,6,0,0,0,250.93,369.24Zm-6,27H166.56v-15h78.37Z"/><path d="M106.25,408.73a16.019,16.019,0,0,1-16-16V317.67a6,6,0,0,0-12,0v75.06a28.032,28.032,0,0,0,28,28,6,6,0,0,0,0-12Z"/><path d="M84.25,306.05a6,6,0,0,0,6-6V293a6,6,0,0,0-12,0v7.05A6,6,0,0,0,84.25,306.05Z"/><path d="M292.53,57.98H154.667a6,6,0,1,0,0,12H292.53a18.021,18.021,0,0,1,18,18V204.826a105.551,105.551,0,0,0-209.57-.016V87.98a18.021,18.021,0,0,1,18-18h14.707a6,6,0,0,0,0-12H118.96a30.034,30.034,0,0,0-30,30V213.51a6,6,0,0,0,6,6H316.53a6,6,0,0,0,6-6V87.98A30.034,30.034,0,0,0,292.53,57.98ZM191.718,207.51a17.247,17.247,0,0,1,28.051,0Zm41.485,0a29.084,29.084,0,0,0-13-15.4l13.1-31.77a6,6,0,1,0-11.094-4.573l-13.476,32.692a29.606,29.606,0,0,0-2.977-.155,29.137,29.137,0,0,0-27.465,19.21H112.753a93.192,93.192,0,0,1,4.278-19.778,5.967,5.967,0,0,0,1.926,1.253l10.62,4.28a6,6,0,1,0,4.486-11.13l-10.62-4.28a5.981,5.981,0,0,0-2.236-.433,93.18,93.18,0,0,1,14.586-22,5.957,5.957,0,0,0,1.252,1.863l8.09,8.1a6,6,0,0,0,8.49-8.48l-8.09-8.1a5.983,5.983,0,0,0-1.875-1.262,93.473,93.473,0,0,1,20.424-13.809,5.971,5.971,0,0,0,.474,2.228l4.48,10.54a6,6,0,1,0,11.044-4.694l-4.48-10.54a5.962,5.962,0,0,0-1.286-1.9,93.317,93.317,0,0,1,25.859-5.233,5.981,5.981,0,0,0-.425,2.208V137.8a6,6,0,0,0,12,0V126.35a5.981,5.981,0,0,0-.425-2.208,93.4,93.4,0,0,1,24.2,4.666,5.966,5.966,0,0,0-1.246,1.92L230,141.347a6,6,0,1,0,11.13,4.486l4.28-10.62a5.987,5.987,0,0,0,.433-2.245,93.368,93.368,0,0,1,22,14.582,5.974,5.974,0,0,0-1.87,1.257l-8.1,8.1a6,6,0,0,0,8.486,8.486l8.1-8.1a5.958,5.958,0,0,0,1.253-1.861,93.284,93.284,0,0,1,13.823,20.413,5.976,5.976,0,0,0-2.236.474l-10.54,4.48a6,6,0,1,0,4.694,11.044l10.54-4.48a6,6,0,0,0,1.886-1.273,93.264,93.264,0,0,1,4.862,21.421Z"/><path d="M445.75,188.24h-8v-42a6,6,0,0,0-12,0v42h-8a6,6,0,0,0-6,6v68a20.035,20.035,0,0,0,14,19.078V454.24a22.025,22.025,0,0,1-22,22h-76a22.1,22.1,0,0,1-16.942-8H353.75a34.038,34.038,0,0,0,34-34V261.318a20.035,20.035,0,0,0,14-19.078v-68a6,6,0,0,0-6-6h-8v-42a6,6,0,0,0-12,0v42h-8a6,6,0,0,0-6,6v68a20.035,20.035,0,0,0,14,19.078V434.24a22.025,22.025,0,0,1-22,22h-47.9c-.059-.66-.1-1.326-.1-2V438.717a46.047,46.047,0,0,0,45.49-45.987V69.76a46.052,46.052,0,0,0-46-46H106.25a46.051,46.051,0,0,0-46,46V392.73a46.052,46.052,0,0,0,46,46H244.056a34.043,34.043,0,0,0,33.694,29.51h19.026a34.214,34.214,0,0,0,30.974,20h76a34.038,34.038,0,0,0,34-34V281.318a20.035,20.035,0,0,0,14-19.078v-68A6,6,0,0,0,445.75,188.24Zm-72-8h16v17h-16Zm0,62v-33h16v33a8,8,0,0,1-16,0Zm-96,214a22.036,22.036,0,0,1-21.538-17.51H293.75v15.51c0,.671.034,1.336.072,2Zm-171.5-29.51a34.038,34.038,0,0,1-34-34V69.76a34.038,34.038,0,0,1,34-34H305.24a34.038,34.038,0,0,1,34,34V392.73a34.038,34.038,0,0,1-34,34Zm333.5-164.49a8,8,0,0,1-16,0v-33h16Zm0-45h-16v-17h16Z"/></svg>
